<svg version="1.1" xmlns="http://www.w3.org/2000/svg" xmlns:xlink="http://www.w3.org/1999/xlink" x="0px" y="0px"
	 viewBox="0 0 250 186.2" xml:space="preserve">
<style type="text/css">

	.sun {
        opacity: 0.3;
        fill: url(#sun-gradient);
        filter: url(#noise);
    }

	.leaves {
        opacity: .9;
        fill: url(#leaves-gradient);
        filter: url(#roughpaper);
    }

</style>

<filter id="roughpaper" x="0%" y="0%" width="100%" height="100%">

    <feTurbulence type="fractalNoise" baseFrequency="0.1" result="f1" numOctaves="5" />

    <feDiffuseLighting in="f1" lighting-color="white" result="f2" surfaceScale="10">
        <feDistantLight azimuth="45" elevation="70" />
    </feDiffuseLighting>

    <feComposite in="f2" in2="SourceGraphic" result="f3" operator="in" />

    <feBlend in="f3" in2="SourceGraphic" mode="multiply" />

</filter>

<filter id="noise" x="0%" y="0%" width="100%" height="100%" filterUnits="userSpaceOnUse">
    <feTurbulence baseFrequency="0.1 2" result="f1" numOctaves="3" />
    <feDisplacementMap in="SourceGraphic" in2="f1" scale="10"></feDisplacementMap>
</filter>

<filter x="0%" y="0%" width="100%" height="100%" id="salt" filterUnits="objectBoundingBox">

    <!-- Step 1 - generation of noise texture (fullcolour) by using feTurbulence SVG filter -->
    <feTurbulence type="fractalNoise" result="f1" stitchTiles="noStitch" baseFrequency="1" numOctaves="3" seed="1" />

    <!-- Step 2 - conversion to grayscale mode together with tonal range limit to achieve desired amount/sizes of fragments -->
    <feColorMatrix type="matrix" values="-23 0 0 0 7      -23 0 0 0 7     -23 0 0 0 7      0 0 0 0 1" in="f1" result="f2" />

    <!-- Step 3 - transparent background - the result is visible fragments of texture only -->
    <feColorMatrix type="luminanceToAlpha" in="f2" result="f3" />

    <feComponentTransfer in="f3" result="f4">
        <feFuncA type="linear" slope="0.5"/>
    </feComponentTransfer>

    <!-- Step 4 - intersection of texture with initial object (or vice-versa) -->
    <feComposite in="f4" in2="SourceGraphic" result="f5" operator="in" />

    <!-- Step 5 - invert of colour - SALT, set up of brightness - SAND. (Note: this step is not used in effect PEPPER)  -->
    <!-- <feColorMatrix type="matrix" values="1 0 0 0 1      0 1 0 0 1     0 0 1 0 1     0 0 0 1 0" in="f4" result="f5" /> -->

    <!-- Step 6 - at last, merging of created texture with initial object -->
    <feBlend in="SourceGraphic" in2="f5" mode="multiply" />

</filter>

<g class="sun">
    <radialGradient id="sun-gradient" cx="151.4248" cy="93.098" r="73.5752" gradientTransform="matrix(1 0 0 0.8 0 18.6196)" gradientUnits="userSpaceOnUse">
        <stop offset="0" style="stop-color:#FFD42F"/>
        <stop offset="0.4373" style="stop-color:#FFD22F"/>
        <stop offset="0.6699" style="stop-color:#FFCA2F"/>
        <stop offset="0.8538" style="stop-color:#FFBC2F"/>
        <stop offset="1" style="stop-color:#FFAB2F"/>
    </radialGradient>
    <circle cx="151.4" cy="93.1" r="73.6"/>
</g>
<g class="leaves">
	<radialGradient id="leaves-gradient" cx="110" data-x="98.4243" cy="80" data-y="94.964" r="72.8207" gradientUnits="userSpaceOnUse">
		<stop offset="0" style="stop-color:#00B576"/>
		<stop offset="0.85" style="stop-color:#00864E"/>
		<stop offset="1" style="stop-color:#006E3D"/>
	</radialGradient>
	<path d="M140.7,134c2.2-2.5,4.2-4.9,6.3-7.3c4.6-5.1,6.8-11.1,7-17.9c0.1-2.6-0.7-5.3,0.9-7.7c0.4-6.5,3.3-11.7,8-16.1
		c1.9-1.7,3.5-3.7,5.4-5.3c1.7-1.4,2.2-3.6,3.3-5.3c0.2-0.4,0.1-1.1-0.1-1.6c-2.3-6.2-4.5-12.3-8-18c-3.6-5.9-7.8-11.3-12.8-16
		c-0.5-0.5-1.3-1.1-1.9-1c-3.1,0.2-6.1-0.9-9.1-0.9c-4.5-0.1-8.5-1.4-12.6-2.7c-3-0.9-6.1-2.3-9.2-2.9c-3.3-0.8-6.6-1.6-10-2.2
		c-2.1-0.4-4.4-0.2-6.2-0.9c-4.2-1.4-8.5-1.1-12.6-2.7c-2.4,0.7-4.5-0.8-6.7-1c-2.2-0.2-4.3-1.1-6.4-1.6c-0.5-0.1-1,0.1-1.6,0.3
		c-4,1.1-7.5,3.2-11.1,5.2c-0.9,0.6-2,1-3,1.5c0.9,0.9,2.6-0.2,3.3,1.3c0.1,0.2,1.4-0.2,2.2-0.3c-0.2-0.5-0.4-0.9-0.6-1.3
		c0.8-0.1,1.7-0.5,2.3-0.2c2,1.1,4.2,0.8,6.2,0.9c0.7,0,1.3,0.7,2,0.8c4.3,0.8,8.6,1.4,12.9,2c3.1,0.5,6.5,0.2,9.5,1.1
		c2,0.6,3.9,0.6,5.8,0.9c1.9,0.2,3.8,0.8,5.8,0.9c2.4,0.2,4.7,0,7.1,0c2.6,0,5,0,7.6,0c0.4,0,0.8,0.3,1.1,0.5
		c-0.4,0.2-0.9,0.4-1.2,0.4c-1.9,0.4-3.8,0.8-5.8,0.9c-7.7,0.8-15.2-1.1-22.8-0.9c-0.2,0-0.4,0.1-0.5,0c-1.9-1.5-4.2-0.9-6.2-0.9
		c-2.2,0-4.2-0.9-6.2-1.1c-2.6-0.4-5.4,0-7.6-0.9c-2.4-0.9-4.6-0.2-6.7-0.9c-2.4-0.8-4.7-0.8-7.2-0.9c-3.8-0.4-6.4,1.3-8.9,3.7
		c-0.7,0.7-1.4,1.3-2,2c-0.8,0.9-1.4,1.8-2.1,2.7c1.1,0.4,2.3,1.2,3.3,1c2.6-0.4,4.7,0.9,7.2,1c13.7,0.4,27.6-0.5,41.3,0.9
		c6,0.6,12,0.7,18.1-0.7c4.6-0.9,9.5-0.8,14.3-1c0.3,0,0.7,0.1,0.9,0c4.6-2.1,9.6-0.4,14.3-0.9c0.2,0,0.5,0.3,0.8,0.5
		c-0.2,0.2-0.4,0.6-0.7,0.7c-0.9,0.3-1.7,0.8-2.6,0.8c-3.3,0.1-6.6-0.1-9.9,0.1c-3.2,0.2-6.3,0.6-9.6,0.9c-0.5,0-1.1-0.2-1.4,0
		c-1.5,1.8-3.6,0.7-5.3,0.9c-1.9,0.3-3.7,1-5.8,1c-15.4-0.2-31-0.1-46.4-0.1c-0.9,0-2.2,0.4-2.7-0.1c-1.6-1-3.2-1-4.8-0.9
		c-1.9,0.2-3.5-0.8-5.3-0.9c-2.3-0.3-4.6,0.6-6.7-0.9c-0.4-0.3-1.3-0.1-1.7,0.3c-0.9,0.8-1.8,1.7-2.7,2.7c-0.1,0.1,0.2,0.8,0.3,0.8
		c0.9,0.1,1.9,0,2.8,0.1c0.4,0,0.8,0.3,1.2,0.5c-0.4,0.2-0.9,0.5-1.2,0.5c-3.8-0.6-6.2,1.1-7.6,4.5c-0.2,0.4-0.7,0.7-0.9,1
		c-0.2,0.2-0.4,0.5-0.7,0.7l0,0l0,0c0.1,0,0.2,0.1,0.3,0.1c0.3,0.1,0.6,0.3,0.9,0.3c2.7,0.4,5.1-0.7,7.7-0.9c2.8-0.2,5.7-0.1,8.5,0
		c2.6,0.1,5.1-2.5,7.7-0.1c3.5-2,7.3-0.5,11-0.9c3.5-0.4,7.1,0.7,10.5-0.9c0.7-0.3,1.7,0.3,2.6,0.5c0.6,0.1,1.3,0.4,1.6,0.2
		c1-1.1,2.4-0.7,3.5-0.7c4.7-0.1,9.5,0,14.2,0c1.5,0,2.9-0.2,4.4-0.9c1.3-0.6,3-0.2,4.5-0.5c0.6-0.1,1-0.8,1,0.3
		c0,0.4-0.4,0.9-0.6,1c-4.3,0.9-8.6,1.2-13,1.8c-4.8,0.7-9.8-0.5-14.8,0.9c-2.4,0.7-5,0-7.6,0.2c-2.3,0.2-4.5,0.8-6.7,0.9
		c-2.5,0.2-4.8,0.5-7.2,0.9c-4.4,0.6-8.9,0.3-13.4,0.9c-5.1,0.8-10.4-0.2-15.7,0.9c-1.9,0.4-2.7,1.3-3.5,2.7
		c-0.4,0.6-0.6,1.2-0.9,1.9c0.8,0.1,1.5,0.2,2.3,0.3c0.2,0,0.4,0.1,0.5,0c1.3-1.1,2.8-0.9,4.4-0.9c1.5-0.1,2.9,0.5,4.5-0.6
		c1.1-0.8,3-0.3,4.5-0.3c1.2,0,2.5,0,3.4-0.9c0.1-0.1,0.6,0.1,0.9,0.2c-0.2,0.4-0.2,0.9-0.5,0.9c-2,0.6-3.9,1.4-6,1.6
		s-4.2,0.6-6.2,0.9c-2.2,0.4-4.5,0.9-6.7,0.9c-2,0.1-2.3,1.2-2.7,2.3c-0.7,1.3-0.9,2.7-1.2,4.2c-0.2,1,0.5,1.5,1.4,1.2
		c0.7-0.2,1.3-0.8,2-0.9c4-0.8,8-0.8,11.9-2c2-0.6,4.1-1.4,5.9-1.6c4.3-0.4,8.2-1.8,12.4-2.1c2.7-0.2,5.3-1.7,8.1-1
		c4.4-1.8,9.1-1.5,13.5-2.7c2.4-0.7,4.9-0.9,7.4-1.7c2.1-0.8,4.4-0.9,6.5-1.3c0.2,0,0.5,0.3,0.8,0.4c-0.2,0.2-0.4,0.4-0.7,0.5
		c-3.2,1.8-6.7,2.9-10.3,3.7c-4.9,1-9.7,3.3-14.9,2.9c-1.5,1.6-3.5,0.7-5.3,0.9c-1.8,0.3-3.5,0.9-5.3,0.9c-5.5-0.1-10.6,2.1-15.8,3
		c-1.2,0.2-2.6,0.8-3.9,0.8c-0.8,0-1.5,0-2.3,0.3c-1.8,0.5-3.6,1.2-5.5,1.6c-1.9,0.5-3.9,0.6-5.8,1c-0.9,0.2-2,0.8-2.2,1.4
		c-0.6,2.4-0.8,4.7-1,7.2c-0.1,0.9,0.4,0.6,1,0.4c2.8-0.8,5.5-2.1,8.3-2.8c5.4-1.5,11.1-1.9,16.2-4.3c5.2,0.1,9.7-2.9,14.9-3.1
		c2.3-0.1,4.5-1.2,6.9-1.6c2.3-0.4,4.5-1.2,6.8-1.8c4.7-1.1,9.6-2.1,13.9-4.2c6.8-3.4,14.1-5.7,21-8.6c0.4-0.2,0.8-0.2,1.2-0.2
		c0.1,0,0.3,0,0.4,0c-0.1,0.1-0.1,0.2-0.2,0.4c-0.2,0.4-0.4,0.8-0.7,0.9c-1.4,0.9-2.7,1.8-4.3,2.2c-4,1-7.8,2.7-11.3,4.7
		c-1.2,0.8-2.6,1.4-4,1.9c-6.1,1.8-11.6,4.8-17.9,6c-1.5,0.3-2.9,1.3-4.5,1.6c-5.2,0.9-10.3,2.5-15.4,3.9c-2.7,0.8-5.4,1.4-8.1,2.1
		c-2.3,0.5-4.6,0.2-6.7,0.9c-5.1,1.9-10.5,2.7-15.6,4.5c-2.8,1-2.8,0.9-2.8,3.7c0,2,0.8,2.7,2.5,1.9c5.3-2.6,11.1-3.1,16.6-4.5
		c4.3-1,8.7-1.7,12.6-3.9c0.4-0.2,0.9,0.1,1.3,0.1c-0.2,0.4-0.4,0.8-0.7,0.9c-3.5,2.7-8,2.9-11.9,4.4c-5,1.7-10.4,2.1-15.5,3.7
		c-1.5,0.5-3.6,0.4-4.5,1.4c-1.4,1.5,0.4,3.3,0.6,5.1c0.1,0.9,0,1.1,1.2,0.6c4.5-1.9,9.3-3.4,14-5.1c0.2-0.1,0.8,0.3,0.8,0.3
		c-0.1,0.5-0.4,0.9-0.5,1.3c0.7-0.2,1.3-0.5,2-0.6c0.6-0.1,1.2-0.1,1.8-0.2c0.2,0,0.4-0.7,0.3-0.9c-0.5-0.9-0.5-0.9-0.1-1
		c3.2-0.9,6.5-1.7,9.7-2.9c2.4-0.9,4.9-0.9,7.1-2.4c2.2-1.5,4.7-2.2,7.4-2.8c1.8-0.5,3.2-2,4.9-2.9c4.7-2.4,9.5-4.5,14.2-7
		c2.9-1.6,6.2-2.7,9.1-4.2c3.1-1.7,6.1-3.6,9.1-5.4c2.7-1.6,5.1-3.2,8.4-3.9c3.2-0.7,6.3-2,9.7-1.7c1.5,0.1,2.7-0.7,4.3-0.6
		c1.6,0.2,3.8,0.3,4.9-0.6c1.8-1.4,3.9-0.7,5.7-1.2c3.3-0.9,6.2-2.5,9.4-3.8c0.8-0.4,2.4-0.5,2.5-0.4c0.5,1.4-1,0.9-1.6,1.2
		c-3.3,2.5-7.3,3.7-11,5.4c-1.6,0.8-3.3,1.7-4.9,1.6c-2.3-0.2-4.1,1.1-6.2,1.1c-2.4-0.1-4.7-0.1-7.1,0c-2,0.1-3.7,1.5-5.8,0.9
		c-0.3-0.1-0.7,0.7-1.1,0.8c-5.9,1.1-10.5,4.6-15.2,7.8c-5.8,3.9-11.7,7.3-18,10.4c-4.7,2.4-9.8,4-14.6,6.1
		c-2.8,1.2-5.8,2.1-8.5,3.3c-2.7,1.3-5.9,1.8-8.7,2.9c-4,1.6-8.2,2.1-12.1,3.8c-2.8,1.2-5.8,2.1-8.8,2.7c-0.7,0.2-1.8-0.4-1.8,0.9
		c0,1.2-0.4,2.5,0.9,3.4c1,0.9,1.2-0.4,1.8-0.6c1.6-0.6,3.2-1.4,4.8-2.2c0.7-0.3,1.4-0.5,2.1-0.6c0.2,0,0.5,0.3,0.8,0.4
		c-0.2,0.2-0.4,0.5-0.6,0.6c-3,0.6-4.9,3.3-7.9,3.9c-0.4,0.1-0.9,0.9-0.9,1.2c0.2,1,0.5,2,0.9,2.9c0.2,0.3,1.1,0.6,1.5,0.4
		c1.7-0.8,3.3-2.1,5.1-2.6c3.4-0.9,6.7-2.5,9.5-4.5c5.3-3.9,11.5-6.1,16.9-9.8c1.9-1.3,4.2-2.3,6.2-3.4c2-1,4.2-2,6.4-2.8
		c1.9-0.8,3.6-1.8,5.6-2.6c5.7-1.9,11.2-4.5,16.1-8c2.9-2.1,6.4-3.2,8.9-6c0.2-0.2,0.9,0,1.2,0c-0.2,0.4-0.2,0.8-0.5,0.9
		c-0.8,0.9-1.4,1.7-2.4,2.4c-8,5.1-16,10-24.3,14.5c-2,1-4.1,1.5-6.1,2.6c-6.2,3.1-12.5,6.3-18.7,9.8c-2.6,1.4-5.6,2.2-7.8,4
		c-1.6,1.3-3.5,1.6-5.1,2.7c-1.6,1.1-3.9,1.2-5.7,2.2c-1.5,0.9-3.2,1.5-4.7,2.4c-1.7,0.9-1.2,1.7-1,2.8c0.2,0.7,0.6,1.4,1,2
		c0.5,0.7,0.9,1.2,2.1,0.4c3.9-2.9,8-5.7,12.1-8.4c0.3-0.2,0.9-0.1,1.2-0.2c-0.1,0.4-0.1,0.9-0.3,0.9c-2,1.5-4.1,3-6.2,4.6
		c-2,1.5-3.9,3.2-6.3,4.2c-1.2,0.5-1.7,3.4-0.8,4.1c1.3,1,1.8-0.7,2.6-1.2c1.1-0.8,2.4-1.4,3.2-2.4c2.2-2.5,5.1-3.8,7.6-5.8
		c2.5-2.1,5.3-3.2,8-4.5c2.5-1.2,5.1-2.2,7.6-3.4c3.5-1.8,7-3.7,10.4-5.7c2.8-1.6,5.9-2.7,8.5-4.6c4.6-3.4,9.7-6.4,14.4-9.8
		c3.3-2.4,6.7-4.7,9.7-7.6c2-2,4.5-3.4,6.8-5.1c1.2-0.9,2.3-2.2,3.7-2.6c4.2-1.3,8.4-2.8,12.7-3.7c4.1-0.9,8.1-1.6,12-3.1
		c4.2-1.6,8.3-3.2,11.5-6.6c1.4-1.5,3.2-2.7,4.9-4.1c0.3-0.2,0.7-0.2,0.9-0.2c-0.1,0.5,0,0.9-0.2,1.2c-3.1,3.4-6.7,6.2-10.6,8.7
		c-0.6,0.4-1.3,0.7-1.9,1c-0.2,0.1-0.2,0.5-0.2,0.7c0.3,0.1,0.7,0.3,0.9,0.2c1-0.7,2.3-0.7,3.4-1c2.4-0.8,4.7-1.4,6.8-2.9
		c2.3-1.6,4.2-3.6,6.2-5.4c0.2-0.2,0.9,0.1,1.2,0.3c0.2,0.1,0.3,0.6,0.1,0.9c-0.2,0.4-0.6,0.8-0.9,1c-3.8,4.5-9.1,6.9-14.7,8
		c-7.2,1.4-12.4,4.9-15.4,11.6c-0.4,0.8-0.9,1.6-1.3,2.3c-1.1,1.6-2.2,3.6-3.8,4.5c-1.9,1.1-2,3.1-3.3,4.4
		c-4.7,4.7-9.1,9.7-14.8,13.4c-4.2,2.7-8.1,5.7-12,8.8c-4.1,3.2-7.9,6.8-12,9.9c-3.9,3-8,5.8-12,8.7c-0.9,0.8-2.2,1.4-2.7,2.5
		c-1.3,2.7-3.3,4.7-5.3,6.7c-2.7,2.8-5.2,5.8-8.1,8.4c-1,0.9-2.7,1.7-2.7,3.6c0,0.6,2.4-0.6,4.3-2.4c4.2-3.8,8.2-7.6,12.3-11.4
		c0.2-0.2,0.4-0.5,0.7-0.7c0.2-0.1,0.6,0,0.7,0.2c0.1,0.3,0.2,0.8,0.1,0.9c-2.7,2.3-3.7,6.4-7.6,7.7c-0.4,1.6-2.7,0.9-3.1,2.9
		c-0.3,1.2-2.5,2.1-3.8,3c-0.1,0.1-0.3,0.2-0.4,0.4c-0.6,0.8-0.6,1.3,0.5,1.8c0.7,0.3,1.3,0.7,1.9,1.2c0.6,0.6,0.9,0.7,1.4,0
		c5.1-5.7,11.4-10.3,15.7-16.7c0.9-1.2,1.6-2.7,2.7-3.4c4.1-2.8,7.6-6.3,11.1-9.7c6.2-5.9,12.5-11.3,19.2-16.4
		c3.6-2.7,7-6.2,9.6-10.1c2.2-3.6,4.8-6.9,7.3-10.2c1.4-2,2.7-4.3,4.7-5.5c4.5-2.8,9.4-5.6,14.4-7.6c3.3-1.3,6.2-2.8,8.7-5.3
		c1.2-1.2,2.5-2.5,3.7-3.7c0.2-0.2,0.5-0.2,0.8-0.3c0.1,0,0.2,0,0.3-0.1c0,0.1,0,0.2,0,0.3c0,0.4,0,0.7-0.1,0.9
		c-1.2,2.3-2.3,4.5-4.3,6.3c-0.9,0.8-1.5,1.9-2.3,2.7c-2.7,3.3-5.5,6.6-8.9,9.1c-4.3,3-7.5,6.8-10.5,10.8c-0.3,0.3-0.1,1.4,0.2,1.5
		c0.9,0.3,1.8-0.1,0.7,1.4c-2.7,3.7-3.8,8.2-5.9,12.2c-0.9,1.7-2.5,3.2-2.7,5c-0.4,2.8-2,4.6-3.9,6.5c-3.7,3.7-7.8,7-11,11.1
		c-4.4,5.6-8,11.8-12.2,17.6c-3,4.3-5.1,9.2-9,12.9c-0.2,0.2,0.3,1.4,0.4,1.4c1.1-0.1,2,0.5,2.9,0.9c1,0.5,2.1,0,2.8-1
		c3.3-4.9,6.7-9.8,9.4-15.1c2-4.2,4.6-7.9,7.1-11.7c3-4.8,7-8.9,11-12.9c4.7-4.8,7.7-10.4,9.8-16.8c2.2-6.5,4.5-13.1,9.1-18.6
		c4.6-5.5,8.5-9.4,15-14c3.1-2.3,6.6-4.4,8.4-8.2c0.6-1.2,1.9-2,2.9-3c0.2,1.5,0.7,3.1,0.4,4.5c-0.3,1.5-1.1,3-2.5,4.2
		c-2,1.7-3.3,3.8-4.5,6.2c-2.6,5.9-6.7,10.5-10.6,15.5c-2.4,3-4.5,6.3-4.3,10.5c0.1,2.4,0.8,4.9-0.9,7.2c-0.1,0.2,0.1,0.6,0.2,0.9
		c0.2-0.1,0.5-0.1,0.7-0.2c0.4-0.3,0.7-0.7,1-0.9c0.2-0.1,0.5-0.2,0.7-0.2c0.1,0.3,0.3,0.7,0.2,0.9c-0.9,1.4-1.6,3-2.7,4
		c-2,1.7-2.3,4.2-3.8,6.1c0.4,3.6-2.2,5.8-3.9,8.3c-1.7,2.7-3.3,5.7-3.6,8.9c-0.3,2.7-1.2,5.2-2.4,7.6c-2,4.1-4.2,8-6.3,12
		c-0.2,0.4-0.5,0.7-0.7,1c0.5,0.1,0.9,0.4,1.3,0.3c2.4-1,4.8-2.2,7.1-3.4c0.5-0.2,0.7-0.9,0.9-1.5c0.9-2.8,2.7-5.5,1.9-8.7
		c1.7-1,0.3-3,1.2-4.2c1.2-1.4,0.2-3,0.7-4.5C138.8,138.3,139,135.9,140.7,134z"/>
	<path d="M58.8,142.1c2.5-2.6,4.2-5.6,6.4-8.1c2.7-2.9,5.5-5.8,8.8-8.2c5.4-4,11.2-7.4,15.7-12.5
		c1.9-2.1,4.4-3.8,6.8-5.3c5.4-3.4,11.4-6.1,15.8-10.8c0.3-0.3,0.9-0.3,1.1-0.6c2.7-2.3,5.4-4.5,8-6.8c0.3-0.2,0.2-0.9,0.3-1.2
		c-0.4,0-0.7,0.1-1,0.2c-1.3,0.3-2.4,1-3.7,1.4c-2.7,0.8-5.4,1.7-7.6,3.3c-5.1,3.7-10.8,6.7-15.2,11.3c-0.1,0.1-0.5,0.1-0.7,0.2
		c0-0.5-0.2-0.9-0.1-1.2c0.2-0.4,0.7-0.7,0.9-1c5-6.1,11.6-10.2,18.7-13.4c6.5-2.8,10.6-8.3,16.3-12.1c2-3.3,4.6-6,8-8
		c0.2-0.1,0.3-0.4,0.5-0.8c-0.6-0.1-1-0.4-1.4-0.2c-3.9,2.3-8,3.6-12.6,3.9c-1.4,0.1-3.3,0.4-4.6,1.1c-4.5,2.3-9.2,4.3-12.8,8
		c-2.2,2.2-4.5,4.2-7,5.9c-2.2,1.4-4.3,2.7-6.2,4.5c-2.3,2-4.7,3.7-7.2,5.4c-2.8,2-5.6,4-8.5,5.7c-4.3,2.6-8.5,5.2-13.2,7.1
		c-4.7,1.9-9.5,3.8-14.1,5.9c-4.2,1.8-7.9,4.3-11.1,7.5c-1.3,1.2-2.8,2.3-4.3,3.4c-0.4,0.3-0.9,0.7-0.9,1c-0.2,1,2.2,3.4,3.2,3.2
		c1.7-0.3,3.7-0.5,5.1-1.4c3.5-2.3,7.4-4.2,10.2-7.3c7-7.8,12.6-9.6,19.8-13.9c2.4-1.4,5.1-2.1,7.7-3.1c2.7-1.1,4.9-3.2,7.8-4.1
		c1.2-0.4,2.2-1.5,3.3-2.3c2.6-1.8,4.9-4,7.5-5.9c3.7-2.7,7.1-5.7,10.7-8.5c2.1-1.7,4.2-3.6,6.3-5.3c0.3-0.3,0.9-0.2,1.2-0.4
		c0.7-0.2,1.3-0.5,2-0.7c-0.5,0.6-0.9,1.2-1.5,1.7c-0.3,0.3-0.9,0.4-1.1,0.7C111.5,85,106,88.6,101,92.8c-3.9,3.2-7.9,6.3-11.7,9.6
		c-1.6,1.3-3.4,2.5-5.2,3.3c-3.1,1.5-6.4,2.7-9.6,4.4c-6.7,3.4-13.5,6.5-18.6,12.4c-2.2,2.6-4.8,4.5-6.9,7.1
		c-1.6,1.9-3.3,2.5-5.7,2.3c-2-0.2-4-0.4-5.8,0.9c-0.2,0.2-0.5,0.3-0.8,0.5c0.6,0.6,1,1.1,1.6,1.7c0.4,0.5,0.8,0.9,1.4,0.2
		c0.3-0.3,1-0.1,1.6-0.1c-0.2,0.4-0.4,0.8-0.7,0.9c-0.9,0.7-1.3,1.2-0.1,2.1c0.4,0.2,0.9,0.7,0.9,1c-0.1,2,1.7,1.6,2.3,1.2
		c3.2-1.8,6.9-3,9.3-6.2c1-1.4,2.4-2.7,3.3-4.4c3.4-5.9,9-9.3,14.6-12.6c4.8-2.8,9.8-5.5,14.4-8.7c0.3-0.2,0.9-0.2,1.2-0.2
		c-0.1,0.4,0,0.8-0.2,0.9c-4,3.7-8.4,6.6-13.1,9.5c-3.3,2-7.2,3.2-9.6,6.6c-0.2,0.3-0.4,0.6-0.7,0.7c-3.9,1.6-5.4,5.5-7.7,8.6
		c-0.9,1.2-1.8,2.4-2.7,3.6c-1.7,2.7-4.7,2.9-7.4,4c-1.4,0.6-0.8,0.9-0.2,1.3c1.5,1.5,2.1,1.8,3.6,0.4c2.2-2,5.3-3,6.4-6.2
		c0.4-1,1.7-1.8,2.7-2.7c0.1-0.1,0.6-0.1,0.7,0c0.1,0.3,0.3,0.8,0.2,0.9c-3.1,3.1-4.8,7.5-9.1,9.5c-1,0.5-1.5,1.4-0.2,2.4
		c0.7,0.5,1.1,1.1,1.7,1.6c0.2,0.2,0.8,0.2,0.9,0.1c1.6-1.1,3.2-2.4,4.6-3.7C57.4,144.5,57.8,143,58.8,142.1z"/>
	<path d="M80.9,158.7c3.2-4.3,6.1-8.9,9.5-13.1c3.4-4.1,6.2-8.6,9.5-12.7c1.8-2.2,3.7-4.3,5.2-6.7s3.5-4.6,5.7-6.6
		c5-4.6,9.4-9.8,13.3-15.3c2-2.7,4.6-5,5.9-8.4c0.8-2,2.7-3.7,4.3-5.3c2-1.9,4-4,6.3-5.3c2.4-1.3,3.8-3.9,6.5-4.8
		c0.9-0.3,1.6-1.4,2.4-2.3c0.2-0.2,0.1-0.7,0-0.9c-0.1-0.2-0.5-0.4-0.7-0.3c-4,2.3-8.4,3.1-12.6,5c-1,0.5-2.1,1.2-2.9,2
		c-4.1,3.3-6.5,7.9-9.3,12.2c-1.2,2-2.4,4.1-4.1,5.9c-3,3.3-6.2,6.4-8.9,10c-0.9,1.3-2.1,1.7-3.2,2.6c-0.6,0.1-1.3,0-1.7,0.4
		c-3.8,3.4-7.6,6.8-11.3,10.3c-3.2,3-6.2,6.2-9.4,9.4c-0.7,0.7-1.5,1.2-2,2c-4,6.1-9.9,10.3-14.8,15.6c-0.7,0.8-2.1,0.9-2.5,1.8
		c-0.6,1.2-0.9,2.1-2.5,2.3c-0.2,0-0.2,0.9-0.4,1.5c0.6,0,1.2,0.2,1.6-0.1c0.8-0.6,1.3-1.3,2.1-2c0.2-0.2,0.5-0.2,0.7-0.3
		c0.1,0.5,0.4,0.9,0.2,1.2c-0.3,0.6-0.9,0.9-1.3,1.3c-0.7,0.7-0.4,2-0.1,1.8c1.1-0.6,1.5,2,2.7,0.4c1.9-2.5,3.8-4.9,6.1-6.9
		c4.2-3.7,6.8-8.6,10.5-12.8c3.9-4.4,6.9-9.6,11.2-13.7c1-1,2.3-1.8,2.9-3c0.9-1.7,2.2-3.2,3.5-4.5c1.3-1.3,2.8-2.6,4.4-3.7
		c0,0.2,0,0.3-0.1,0.5c0,0.5-0.1,0.9-0.3,1.2c-1.9,2-3.5,4.4-5.4,6.2c-4.4,4.4-6.9,10-11.3,14.3c-1.7,4.4-5.2,7.6-7.8,11.4
		c-2.7,4.1-6.5,7.4-9.9,11.1c-1.4,1.5-1.5,1.7,0.7,2.6c0.8,0.3,1.4,2.1,2.7,0.7C77.8,161.7,79.6,160.4,80.9,158.7z"/>
	<path d="M81.3,22.6c1.6,0.1,3.3-0.4,4.7,0.1c4.4,1.6,9.1,1.8,13.5,2.6c4.3,0.8,8.4,2.3,12.9,2.1c1.6,2,4.3,0,5.9,1.7
		c5.7,0.8,10.8,4.3,16.8,4c0.3,0,0.7,0.1,0.8,0.3c1.2,1.2,2.7,0.4,4,0.7c1.4,0.3,2.8,0.7,4.4,0.9c0.4,0.1,0.9-0.3,1.2-0.4
		c-0.3-0.4-0.6-0.8-0.9-0.9c-4.2-3.3-8.9-5.8-13.6-8c-3.4-1.7-7.1-2.7-10.7-3.8c-4.5-1.4-8.9-2.2-13.4-2.9c-1,0.2-1.9,0.3-2.8,0.5
		c0.7,1.3,1.8,0.6,2.7,0.6c2,0.2,3.7,1.6,5.8,1c0.2-0.1,0.6,0.5,0.9,0.8c-0.4,0.4-0.8,1-1.1,1c-1.6-0.2-3.2-0.5-4.8-0.9
		c-3-0.9-6.2-0.9-9.2-1.7c-2.4-0.7-5-2.1-7.6-1c-1.6,0.7-3.4,0.4-4.8,0.9c-1.6,0.8-3.2,0.8-4.8,0.9c-0.3,0-0.6,0.6-0.9,0.9
		C80.6,21.9,80.9,22.6,81.3,22.6z"/>
	<path d="M121.5,142c3.9-4.8,7.9-9.7,11.6-14.6c2.6-3.4,5.1-6.8,6.3-11.1c0.9-2.9,2.7-5.7,3.1-8.6
		c0.9-6.2,4.5-10.9,8-15.6c2.7-3.8,6-7.3,8.9-11c0.3-0.3,0.2-0.9,0.3-1.2c-0.4,0.1-0.8,0-1,0.2c-1.3,0.8-2.6,1.4-3.8,2.3
		c-5.7,3.6-10.4,8.2-14,13.8c-2.9,4.5-3.1,10.1-3.8,15.4c-0.3,2-0.5,4-1.1,5.7c-1.5,4-3.4,7.9-6.9,10.2c-2.6,1.7-4.1,3.6-5.4,6.2
		c-3.7,7.8-7.5,15.5-11.6,23.1c-1.7,3.1-2.6,6.6-5.2,9.2c-0.2,0.2,0.1,1,0.1,1.4c1.6-0.3,2.9-0.6,4.2-0.9c1.3-0.3,2.4-0.9,2.2-2.5
		c-0.2-2,0.5-3.9,0.9-5.8C115.5,152.4,117.8,146.7,121.5,142z"/>
	<path d="M102.8,140c4.3-6.6,9.3-13,15.2-18.4c1.8-1.6,3.3-3.6,4.6-5.6c1.2-1.8,1.7-4.2,3.1-5.8
		c2.1-2.3,2.7-5.3,4.5-7.7c0.2-0.2-0.2-0.9-0.3-1.2c-0.4,0.2-0.8,0.4-0.9,0.7c-0.6,0.9-1,1.8-1.5,2.7c-2.7,4.7-5.5,9.3-9.5,13.2
		c-4.5,4.3-9.1,8.4-12.8,13.5c-3.1,4.5-7,8.3-9.8,13c-4.1,6.4-9.3,12-14.1,17.7c-0.5,0.6-1.1,1.1-1.6,1.7c-0.1,0.1,0.1,0.8,0.3,0.8
		c1.2,0.5,2.5,0.9,3.8,1.2c1.5,0,2.4-0.8,3.1-1.9c2.6-3.7,4.2-8,7.5-11.1C96,147.9,100.1,144.4,102.8,140z"/>
	<path d="M162.6,112.7c1-4.7,2.3-9.6,2.7-14.4c0.4-3.3,1.4-6.3,2.1-9.6c0.3-1.2,1.3-2.3,2.1-3.4c0.1-0.1,0.5,0,0.7,0.1
		c0.1,0,0.1,0.3,0.1,0.4c-1.6,2.6-0.7,5.4-0.9,7.8c0,2.3,0,4.2,0,6.1c0,0.1,0.2,0.4,0.3,0.4c0.2,0,0.6-0.1,0.7-0.3
		c1.7-3.6,4.7-6.7,3.9-11.2c-0.2-1.2-0.1-2.6,0-3.8c0.1-1.3-0.5-2.3-0.9-3.4c-0.5-1.2-0.6-0.9-1.3-0.4c-4.1,2.6-7.9,5.4-10.8,9.1
		c-2.4,2.9-2.5,6.8-3,10.5c-0.2,1,0.9,2.3,0.9,3.4c-0.2,3.9,1.7,7.5,1,11.5c0,0.1,0,0.3,0.1,0.4c0.1,0.1,0.2,0.3,0.3,0.4
		c0.1,0,0.1-0.1,0.2-0.1c0.2-0.1,0.4-0.2,0.5-0.4C161.4,114.8,162.3,113.9,162.6,112.7z"/>
	<path d="M131.3,143.3c-0.5-2.3,2-3.6,1.9-5.9c-0.1-2.2,1-3.7,2.5-5.1c1.1-1.1,2.2-2.3,3.2-3.4c0.1-0.2,0-0.6-0.2-0.9
		c0-0.1-0.5-0.1-0.7,0c-0.7,0.7-1.2,1.6-2.1,1.9c-2.9,1.1-4.5,3.6-5.9,6.1c-1.4,2.5-3,4.7-4.5,7.1c-1.2,1.8-3,3.3-3.8,5.5
		c-1.4,3.8-3.1,7.5-4.6,11.3c-0.6,1.5-0.9,3.1-1.3,4.6c-0.1,0.3-0.1,0.7-0.3,2.2c2.4-1.7,4-2.4,5.9-2.1c0.1,0,0.5-0.8,0.5-1.1
		c0.1-3.4,1.3-6.7,3.4-8.9C128.4,151.2,128.5,146.5,131.3,143.3z"/>
	<path d="M117.1,142.4c1-1.4,1.9-2.9,2.7-4.5c0.8-1.5,1.3-3.2,2.1-4.8c-2.1,0.1-2.7,2-4,3.1c-2,1.9-3.9,4-5.3,6.2
		c-2.6,4.1-4.5,8.6-7.2,12.6c-2.6,3.9-4.4,8.1-7.6,11.6c-0.2,0.2-0.3,0.5-0.4,0.7c0.3,0.1,0.6,0.3,0.9,0.3c0.5,0.1,0.9,0,1.8,0
		c1.7,0.4,3.5-0.2,4.5-2.1c1.5-3,3.7-5.7,5.3-8.7C112.3,152,113.9,146.7,117.1,142.4z"/>
	<path d="M157.8,126.1c-0.2-1.3-0.3-2.7-0.5-4.1c-1.1,0.8-2.2,1.5-3.3,2.3c-0.8,0.5-0.8,1,0.2,2.1
		c0.4,0.5,0.5,0.6,0.3,1.3c-0.1,0.4-0.3,0.8-0.4,1.1c-0.3-0.6-0.7-1.1-0.9-1.8l0,0c0-0.5,0-0.9,0-1.4c-0.4,0.2-0.9,0.4-1.1,0.7
		c-1.8,2.1-3.9,4-5.7,6.1c-1.9,2.3-2.7,5-4.5,7.2c-0.7,0.8-0.8,2.2-1,3.3c-0.2,0.9-0.5,1.7-0.5,2.7c0,0.8,0.5,1.5,0.5,2.3
		c-0.1,1.5,0.6,3-0.6,4.5c-0.4,0.6,0,1.7,0,2.6c0.8-0.3,1.6-0.5,2.4-0.9c2.1-0.9,3.1-2.2,3-4.6c-0.1-2.4,0.4-4.8,0.8-7.2
		c0.6-4.1,2.5-7.2,4.8-10.3c0.6-0.8,1.1-1.5,2.4-1.3c-0.9,2.2-1.9,4.3-3.3,6.1c-1.3,1.8-2.2,3.8-1.6,5.9c0.3,1,0.8,2,1.2,3
		c0.3,0.6,0.7,1.1,0.9,1.8c1-0.9,2-1.8,3-2.7c0.6-0.6,1.1-1,1.7-1.7c0.2-0.2,0.4-0.4,0.5-0.6c2-2.4,3.4-5,3-8.3
		C158.5,131.5,158.2,128.8,157.8,126.1z"/>
	<path d="M167.3,114.7c0-0.4-0.3-0.9-0.5-1.2c-0.5-0.7-1-1.2-1.6-0.2c-0.8,1.4-1.3,3-2.4,4.2c-1.8,2-2.4,4.2-2.1,6.2
		c0,1-0.2,1.7,0,2.3c0.4,0.9,0.8,1.8,1.1,2.7c0.4,0.9,0.9,1.8,1.2,2.7c0.2-0.3,0.5-0.6,0.7-0.9c0.7-0.9,1.3-1.8,2-2.7
		c0.8-1.2,1.3-2.6,2-3.9c0.3-0.5,0.7-1.3,0.5-1.6C166.9,119.8,167.5,117.3,167.3,114.7z"/>
	<path d="M173.6,98.5c-0.2,0.3-0.4,0.6-0.6,0.9c-0.3,0.4-0.5,0.8-0.8,1.1c-3,3.1-3.8,7-4,11.1c0,1.7,0.6,3.5,0.9,5.2
		c0,0,0.7,0,0.9-0.2c0.4-0.3,0.8-0.7,0.9-1c1.3-4.9,2.2-9.8,2.8-14.1c0-1.2,0-1.7,0-2.2C173.9,99.1,173.7,98.8,173.6,98.5z"/>
</g>
<script>
    <![CDATA[
    document.querySelector(".sun").addEventListener("click", function() {
        let map = document.querySelector("#noise feDisplacementMap");
        let turbulence = document.querySelector("#noise feTurbulence");

        function step() {
            map.setAttribute("scale", Number(Math.random() * 20));
            turbulence.setAttribute("baseFrequency", `${Math.random() * 0.1} ${Math.random() * 1}`);
            window.requestAnimationFrame(step);
        }

        window.requestAnimationFrame(step);
    });
    ]]>
</script>
</svg>
